<?xml version="1.0" standalone="no"?>
<svg
  width="600"
  height="600"
  viewBox="0 0 600 600"
  xmlns="http://www.w3.org/2000/svg"
>
  <g transform="translate(300,300)">
    <path d="M101.2,-105.8C150.1,-79.6,221.8,-65.7,249.3,-26.7C276.8,12.3,260.1,76.4,227.6,130.1C195.1,183.9,146.8,227.3,98.8,224.2C50.8,221.1,3.2,171.7,-32.3,137.5C-67.7,103.4,-91,84.7,-132.2,55.8C-173.4,26.9,-232.4,-12.3,-240.9,-56.1C-249.4,-99.9,-207.3,-148.4,-158.7,-174.6C-110.1,-200.9,-55.1,-205,-14.5,-187.7C26.1,-170.5,52.3,-132,101.2,-105.8Z" fill="#cad9d8" />
  </g>
</svg>
  